<svg xmlns="http://www.w3.org/2000/svg" viewBox="0 0 1024 1024" width="1024" height="1024">
  <!-- Helmet centered in 1024x1024 canvas with padding for icon safe zone -->
  <g transform="translate(165, 60) scale(0.7)">
    <path fill="#000000" d="
      M576.258484,768.217773
      C555.323303,797.230286 534.585876,825.944824 513.846252,854.662292
      C511.135498,853.061584 511.955841,851.021790 511.953735,849.363403
      C511.867432,780.034851 511.979462,710.705444 511.630829,641.378357
      C511.578583,630.994507 513.539368,621.913757 520.563965,614.240540
      C524.058594,610.423157 524.548462,606.313354 522.479675,601.804871
      C519.252380,594.771484 519.340210,587.798828 521.742249,580.475281
      C523.810608,574.169067 525.410400,567.656799 526.565430,561.120361
      C527.457275,556.073547 529.931335,553.691101 534.874878,552.772522
      C552.340698,549.527039 567.050049,541.289001 578.696106,527.766785
      C582.966797,522.808105 586.486816,517.356995 588.992859,511.313812
      C590.585938,507.472260 589.085266,505.306244 585.324524,506.480133
      C555.872925,515.672974 527.475830,526.643799 510.490875,555.029846
      C507.260223,560.429077 504.546814,566.137939 500.669342,573.448730
      C492.791077,553.922119 482.135162,537.990417 465.137329,527.254944
      C448.703339,516.875610 430.769501,510.245422 412.218140,505.233337
      C410.702362,508.228821 412.267853,509.864410 413.105133,511.548737
      C424.137512,533.743347 441.899017,547.428223 466.066406,552.493835
      C471.818817,553.699585 474.694977,556.310242 475.839844,562.005371
      C477.344269,569.489075 479.518250,576.839355 481.443817,584.236694
      C482.870209,589.716614 482.967224,595.129150 480.473267,600.329041
      C477.670197,606.173401 478.677887,611.340576 483.029480,615.928284
      C488.397461,621.587585 490.373932,628.405640 490.342743,636.032532
      C490.178467,676.195923 490.516449,716.368103 489.764404,756.520142
      C489.186859,787.355896 490.741547,818.152832 490.264008,848.970947
      C490.236816,850.724365 490.648621,852.562683 489.716400,854.237000
      C487.239166,854.084351 486.595764,852.157532 485.582458,850.754211
      C438.174438,785.102600 390.830078,719.404846 343.341614,653.811523
      C337.166321,645.281921 336.269806,636.787659 340.213898,627.072632
      C351.847534,598.416748 358.761475,568.445801 364.328186,538.118164
      C364.934265,534.816223 363.222992,533.657654 360.816193,532.475037
      C350.805267,527.555969 350.916534,527.559265 353.903809,516.911682
      C358.469177,500.639343 357.730804,483.938629 357.610107,467.301666
      C357.583191,463.590210 354.647461,462.874084 351.875702,462.101471
      C334.463043,457.247894 317.773895,450.715118 302.448669,440.970062
      C263.250885,416.044739 240.053116,380.908386 234.572296,334.511536
      C229.170105,288.780548 243.525818,249.183731 272.256775,214.137421
      C292.895813,188.961716 317.410706,167.981766 343.501099,148.733780
      C344.646179,147.888992 345.636017,146.522781 347.524170,147.028046
      C348.398102,148.787628 347.101349,150.162704 346.494629,151.570129
      C334.334015,179.780396 324.301666,208.638077 319.763885,239.168900
      C316.598785,260.463959 315.675507,281.679626 324.479431,302.001953
      C337.422211,331.878052 361.187622,347.268738 392.574219,352.815643
      C402.012421,354.483673 408.656036,352.605713 415.479095,345.477753
      C428.904938,331.452026 445.597687,321.376526 461.701599,310.677094
      C473.079895,303.117340 484.405304,295.470856 495.575714,287.609314
      C499.259888,285.016479 502.237732,284.873352 505.947845,287.458496
      C526.725708,301.936127 547.645386,316.210175 568.432251,330.675018
      C576.109009,336.016998 582.950256,342.430542 589.595154,348.960114
      C593.527222,352.823883 597.583008,354.340851 602.995422,353.722260
      C627.562073,350.914490 649.056824,341.946411 665.363281,322.714996
      C676.592285,309.471863 682.463623,293.975830 683.753662,276.674438
      C686.418396,240.935455 676.890198,207.438812 664.933716,174.413177
      C662.102356,166.592697 658.655762,158.994492 655.468628,151.303787
      C654.961975,150.081116 654.188049,148.930573 654.900940,147.575989
      C655.766785,146.775299 656.499146,147.326721 657.137390,147.797363
      C684.294800,167.823944 710.284241,189.125778 731.498657,215.671478
      C749.484070,238.176834 762.765503,262.988617 766.757629,291.811432
      C774.125916,345.009338 759.574646,390.597504 718.604370,426.725586
      C698.663025,444.310150 675.419739,455.376373 649.985107,462.135834
      C645.430420,463.346313 644.307251,465.613831 644.287415,469.881195
      C644.202515,488.073120 644.699036,506.192688 650.280518,523.717041
      C651.734375,528.281555 648.717346,529.074829 645.817871,530.407471
      C637.915833,534.039307 638.007996,534.055481 639.166382,542.620300
      C641.941040,563.136719 647.524414,582.962524 653.853516,602.599609
      C657.376404,613.529846 660.940125,624.454041 664.846802,635.250244
      C666.510986,639.849182 665.806763,643.477539 663.027893,647.337585
      C634.118408,687.494019 605.299927,727.716003 576.258484,768.217773
      z"/>
  </g>
</svg>
